$MeshFormat
4.1 0 8
$EndMeshFormat
$PhysicalNames
5
1 1 "Bottom"
1 2 "Right"
1 3 "Top"
1 4 "Left"
2 5 "Plate"
$EndPhysicalNames
$Entities
9 8 1 0
1 0 0 0 0
2 100 0 0 0
3 100 200 0 0
4 0 200 0 0
5 50 100 0 0
6 60 100 0 0
7 50 110 0 0
8 40 100 0 0
9 50 90 0 0
1 0 0 0 100 0 0 1 1 2 1 -2
2 100 0 0 100 200 0 1 2 2 2 -3
3 0 200 0 100 200 0 1 3 2 3 -4
4 0 0 0 0 200 0 1 4 2 4 -1
5 50 100 0 60 110 0 0 2 6 -7
6 40 100 0 50 110 0 0 2 7 -8
7 40 90 0 50 100 0 0 2 8 -9
8 50 90 0 60 100 0 0 2 9 -6
1 0 0 0 100 200 0 1 5 8 1 2 3 4 -8 -7 -6 -5
$EndEntities
$Nodes
17 950 1 950
0 1 0 1
1
0 0 0
0 2 0 1
2
100 0 0
0 3 0 1
3
100 200 0
0 4 0 1
4
0 200 0
0 6 0 1
5
60 100 0
0 7 0 1
6
50 110 0
0 8 0 1
7
40 100 0
0 9 0 1
8
50 90 0
1 1 0 19
9
10
11
12
13
14
15
16
17
18
19
20
21
22
23
24
25
26
27
4.999999999979755 0 0
9.999999999961581 0 0
14.99999999994008 0 0
19.99999999991413 0 0
24.99999999988819 0 0
29.99999999986224 0 0
34.99999999984823 0 0
39.99999999984005 0 0
44.99999999983187 0 0
49.99999999982369 0 0
54.99999999981551 0 0
59.99999999980733 0 0
64.99999999980859 0 0
69.99999999983592 0 0
74.99999999986328 0 0
79.99999999989062 0 0
84.99999999991796 0 0
89.9999999999453 0 0
94.99999999997266 0 0
1 2 0 39
28
29
30
31
32
33
34
35
36
37
38
39
40
41
42
43
44
45
46
47
48
49
50
51
52
53
54
55
56
57
58
59
60
61
62
63
64
65
66
100 4.999999999980423 0
100 9.99999999995951 0
100 14.99999999994023 0
100 19.99999999992316 0
100 24.9999999999054 0
100 29.99999999988016 0
100 34.9999999998542 0
100 39.99999999982826 0
100 44.99999999980232 0
100 49.99999999977637 0
100 54.99999999975043 0
100 59.99999999972449 0
100 64.99999999970466 0
100 69.99999999969646 0
100 74.99999999968828 0
100 79.9999999996801 0
100 84.99999999967193 0
100 89.99999999966374 0
100 94.99999999965556 0
100 99.99999999964737 0
100 104.9999999996392 0
100 109.999999999631 0
100 114.9999999996228 0
100 119.9999999996147 0
100 124.9999999996065 0
100 129.9999999996172 0
100 134.9999999996445 0
100 139.9999999996718 0
100 144.9999999996992 0
100 149.9999999997266 0
100 154.9999999997539 0
100 159.9999999997812 0
100 164.9999999998086 0
100 169.9999999998359 0
100 174.9999999998633 0
100 179.9999999998906 0
100 184.999999999918 0
100 189.9999999999453 0
100 194.9999999999726 0
1 3 0 19
67
68
69
70
71
72
73
74
75
76
77
78
79
80
81
82
83
84
85
95.00000000003553 200 0
90.00000000007105 200 0
85.00000000010658 200 0
80.00000000014211 200 0
75.00000000017764 200 0
70.00000000021316 200 0
65.00000000024869 200 0
60.00000000025813 200 0
55.00000000025813 200 0
50.00000000025813 200 0
45.00000000025813 200 0
40.00000000025814 200 0
35.0000000002487 200 0
30.00000000021316 200 0
25.00000000017765 200 0
20.00000000014211 200 0
15.00000000010658 200 0
10.00000000007105 200 0
5.000000000035527 200 0
1 4 0 39
86
87
88
89
90
91
92
93
94
95
96
97
98
99
100
101
102
103
104
105
106
107
108
109
110
111
112
113
114
115
116
117
118
119
120
121
122
123
124
0 195.0000000000355 0
0 190.0000000000711 0
0 185.0000000001066 0
0 180.0000000001421 0
0 175.0000000001776 0
0 170.0000000002132 0
0 165.0000000002487 0
0 160.0000000002842 0
0 155.0000000003197 0
0 150.0000000003553 0
0 145.0000000003908 0
0 140.0000000004263 0
0 135.0000000004619 0
0 130.0000000004974 0
0 125.0000000005163 0
0 120.0000000005163 0
0 115.0000000005163 0
0 110.0000000005163 0
0 105.0000000005163 0
0 100.0000000005163 0
0 95.00000000051627 0
0 90.00000000051627 0
0 85.00000000051627 0
0 80.00000000051628 0
0 75.00000000051628 0
0 70.00000000049741 0
0 65.00000000046185 0
0 60.00000000042633 0
0 55.00000000039083 0
0 50.0000000003553 0
0 45.00000000031977 0
0 40.00000000028422 0
0 35.00000000024869 0
0 30.00000000021316 0
0 25.00000000017764 0
0 20.00000000014211 0
0 15.00000000010658 0
0 10.00000000007105 0
0 5.000000000035527 0
1 5 0 3
125
126
127
59.23879531617012 103.8268343452406 0
57.07106778867811 107.0710678350528 0
53.82683430302026 109.2387953336584 0
1 6 0 3
128
129
130
46.17316566952387 109.2387953222858 0
42.92893217687487 107.0710678006058 0
40.7612046700578 103.8268343119919 0
1 7 0 3
131
132
133
40.76120468382988 96.1731656547594 0
42.92893221132189 92.92893216494716 0
46.17316569697974 90.76120466634164 0
1 8 0 3
134
135
136
53.82683433047613 90.76120467771423 0
57.07106782312513 92.92893219939418 0
59.2387953299422 96.17316568800814 0
2 1 0 814
137
138
139
140
141
142
143
144
145
146
147
148
149
150
151
152
153
154
155
156
157
158
159
160
161
162
163
164
165
166
167
168
169
170
171
172
173
174
175
176
177
178
179
180
181
182
183
184
185
186
187
188
189
190
191
192
193
194
195
196
197
198
199
200
201
202
203
204
205
206
207
208
209
210
211
212
213
214
215
216
217
218
219
220
221
222
223
224
225
226
227
228
229
230
231
232
233
234
235
236
237
238
239
240
241
242
243
244
245
246
247
248
249
250
251
252
253
254
255
256
257
258
259
260
261
262
263
264
265
266
267
268
269
270
271
272
273
274
275
276
277
278
279
280
281
282
283
284
285
286
287
288
289
290
291
292
293
294
295
296
297
298
299
300
301
302
303
304
305
306
307
308
309
310
311
312
313
314
315
316
317
318
319
320
321
322
323
324
325
326
327
328
329
330
331
332
333
334
335
336
337
338
339
340
341
342
343
344
345
346
347
348
349
350
351
352
353
354
355
356
357
358
359
360
361
362
363
364
365
366
367
368
369
370
371
372
373
374
375
376
377
378
379
380
381
382
383
384
385
386
387
388
389
390
391
392
393
394
395
396
397
398
399
400
401
402
403
404
405
406
407
408
409
410
411
412
413
414
415
416
417
418
419
420
421
422
423
424
425
426
427
428
429
430
431
432
433
434
435
436
437
438
439
440
441
442
443
444
445
446
447
448
449
450
451
452
453
454
455
456
457
458
459
460
461
462
463
464
465
466
467
468
469
470
471
472
473
474
475
476
477
478
479
480
481
482
483
484
485
486
487
488
489
490
491
492
493
494
495
496
497
498
499
500
501
502
503
504
505
506
507
508
509
510
511
512
513
514
515
516
517
518
519
520
521
522
523
524
525
526
527
528
529
530
531
532
533
534
535
536
537
538
539
540
541
542
543
544
545
546
547
548
549
550
551
552
553
554
555
556
557
558
559
560
561
562
563
564
565
566
567
568
569
570
571
572
573
574
575
576
577
578
579
580
581
582
583
584
585
586
587
588
589
590
591
592
593
594
595
596
597
598
599
600
601
602
603
604
605
606
607
608
609
610
611
612
613
614
615
616
617
618
619
620
621
622
623
624
625
626
627
628
629
630
631
632
633
634
635
636
637
638
639
640
641
642
643
644
645
646
647
648
649
650
651
652
653
654
655
656
657
658
659
660
661
662
663
664
665
666
667
668
669
670
671
672
673
674
675
676
677
678
679
680
681
682
683
684
685
686
687
688
689
690
691
692
693
694
695
696
697
698
699
700
701
702
703
704
705
706
707
708
709
710
711
712
713
714
715
716
717
718
719
720
721
722
723
724
725
726
727
728
729
730
731
732
733
734
735
736
737
738
739
740
741
742
743
744
745
746
747
748
749
750
751
752
753
754
755
756
757
758
759
760
761
762
763
764
765
766
767
768
769
770
771
772
773
774
775
776
777
778
779
780
781
782
783
784
785
786
787
788
789
790
791
792
793
794
795
796
797
798
799
800
801
802
803
804
805
806
807
808
809
810
811
812
813
814
815
816
817
818
819
820
821
822
823
824
825
826
827
828
829
830
831
832
833
834
835
836
837
838
839
840
841
842
843
844
845
846
847
848
849
850
851
852
853
854
855
856
857
858
859
860
861
862
863
864
865
866
867
868
869
870
871
872
873
874
875
876
877
878
879
880
881
882
883
884
885
886
887
888
889
890
891
892
893
894
895
896
897
898
899
900
901
902
903
904
905
906
907
908
909
910
911
912
913
914
915
916
917
918
919
920
921
922
923
924
925
926
927
928
929
930
931
932
933
934
935
936
937
938
939
940
941
942
943
944
945
946
947
948
949
950
49.99316566524562 4.953156028262254 0
45.01903670536603 195.0452695559608 0
53.49251602019538 112.6872855223896 0
46.71387971665006 86.54555369769562 0
95.05114859348969 45.0054003483058 0
55.10852322642733 87.74163728746198 0
4.942861698040722 154.995221909134 0
95.05672998931085 155.0093905560942 0
43.103496841117 111.3888529267377 0
38.0419221506919 94.80068950095195 0
4.938927352816747 44.97264694661737 0
95.14710807799082 125.0866877095781 0
4.864101202780669 70.06027115813134 0
95.1022125442415 60.00443826267519 0
95.13140396818197 74.99326293422195 0
64.87744646392348 97.85167608438631 0
4.896992848237676 139.9946809097138 0
4.876045317503721 124.9742613968648 0
35.81023711216353 102.3929240083446 0
34.98833341234394 4.97336516205042 0
65.00653945292584 195.0228337091667 0
70.00578502639101 4.980603385483914 0
61.82049135243593 106.105949589653 0
4.887504899517699 90.03459938523028 0
4.886856046015442 110.0722601023326 0
95.14299857861899 89.99159249986421 0
95.15534345112604 105.0015819909721 0
4.971793169833363 29.99027054968525 0
95.0158997370707 175.0049130763327 0
95.00993100824131 24.9921450133996 0
25.00394894027622 195.0173594129062 0
80.0027836711181 195.0064574166144 0
85.00177368209246 4.997039259885184 0
4.9976000673886 185.0026399639249 0
95.00393903312987 185.0023908930024 0
4.984171664701882 19.98819180563535 0
19.9890620698207 4.986710225648739 0
4.894909743990538 59.99976179522399 0
95.11028222519118 135.0614767031885 0
95.00110480826159 9.998675339645263 0
4.987569730955305 175.0001500913686 0
9.999878986890721 195.0017172102164 0
95.15829117306474 110.0208378246132 0
95.14972987915789 94.98153621488862 0
4.911094143712473 105.092852052015 0
4.928626135949011 100.0772580750169 0
4.867960867625702 85.05865316073562 0
95.15782185940402 115.0449744810174 0
4.85560529886421 80.08100747666444 0
4.872333004960877 120.0083174689427 0
95.14036490088493 79.98933749020919 0
4.880907493680091 134.9725648825762 0
95.11890734294025 64.9951055554403 0
95.09716633329407 140.0309227761842 0
4.906456741688955 54.97342410739453 0
60.00178623917967 4.961812134286387 0
44.9909914198993 4.955430590485195 0
35.01559418683375 195.037048113931 0
50.01637721787858 195.0439179778429 0
4.966353196508816 164.9868465703902 0
4.927923615779097 150.0097734841258 0
95.04463429675147 160.0113362641735 0
95.08752360259587 145.0108994109079 0
95.02657736937689 34.99485475936489 0
95.06990498573141 50.00705584715113 0
55.01336325018686 195.0391147926289 0
95.03453162633883 165.0097367245152 0
70.00538104943858 195.0163747408548 0
4.949554806551999 39.98233346873748 0
4.977054777404622 14.97836201971453 0
85.00201536246365 195.0038319040122 0
95.00159104241152 190.0015162077939 0
14.9793924334771 4.978408223685397 0
4.968983498758012 9.969269357857664 0
29.98832213236373 4.980669233220283 0
9.971345517791359 4.971097534565017 0
90.00117350047631 195.001914775993 0
95.00056532305292 195.0007566519829 0
4.979767354670638 4.979767806858955 0
80.00320658810061 4.99365046233377 0
95.00269448632007 14.99694869400921 0
95.00043037390878 4.99944455783262 0
4.99991789873907 195.0006357712192 0
14.99991038939293 195.0046219734335 0
62.97561086210467 92.64178086243838 0
37.79565948974141 107.6606185882757 0
46.810995157992 112.8995782707072 0
57.84485402036294 111.8788110615311 0
63.84266910108239 103.5095567402283 0
49.98113765102876 9.883981026881354 0
45.04082062995572 190.1140330994286 0
43.45440989975027 115.6186691760162 0
55.78058987224207 114.5190396575847 0
90.14209173309582 155.0272806553512 0
90.12782354403521 44.97906754385431 0
9.848582601059437 44.93571000732685 0
90.2545107478133 59.95176576636667 0
9.856706616502665 155.0197089798633 0
90.27379711541772 135.132892214369 0
9.703797635223586 125.0050786499024 0
29.95974254569861 9.949371975538313 0
65.02823571756342 190.058413102269 0
69.0349623502768 96.24211521484725 0
90.40411977794763 110.0994409658628 0
34.42574125415306 105.997461861128 0
9.701853754485029 85.14371291246306 0
90.32374745605193 74.90095978169532 0
9.883890495653761 105.3195658506156 0
65.67208304935457 105.5616403315532 0
90.34244166252404 89.92121062463947 0
9.966853184337419 19.97430915358638 0
19.9743681341272 9.972539587289322 0
14.97095427935689 9.970512706789323 0
80.01226346903626 190.0175311919504 0
90.00412819775909 190.0047297563933 0
85.00643881442649 9.991156287765639 0
51.59385592541852 86.24802222584175 0
43.32116554576436 88.58695278534212 0
58.72536801205369 89.69547487878184 0
36.81733704489378 98.57583495182757 0
95.1592995376414 99.98445496382149 0
4.915911618685271 95.04696470396229 0
4.871387698652774 115.0458248951664 0
95.14900996369335 84.98534080257301 0
4.850168245061376 75.08109537923647 0
95.15866198032874 120.0717799042343 0
4.870884535929147 129.9677623786755 0
95.13356191339938 69.98494494664328 0
90.24321608504019 140.066587726431 0
95.13918512875728 130.0869477381669 0
4.874901998216773 65.03041164273417 0
4.910290870660487 145.0142189660336 0
95.09173160597257 55.002593594229 0
4.919720961106596 49.96506304163768 0
95.07673933662943 150.0066522134186 0
55.03783951088332 190.0971845283555 0
90.11275148487471 160.0332788314116 0
54.99709679159112 4.953243070199632 0
40.01934948228117 195.0457140594569 0
4.951438750901496 159.9889790378743 0
95.04070354527491 39.99729827434284 0
39.98813148280516 4.962253762403527 0
4.959663052789155 34.9872462601482 0
60.01194260148161 195.0335900550077 0
65.0058453190652 4.970218020522253 0
30.00924669145961 195.0282057458608 0
95.02551955485832 170.0076213791746 0
4.976807780436689 169.9942615929226 0
95.01794771954432 29.99102494414715 0
4.979145964520447 24.98931960203499 0
75.00472897893169 195.011422094978 0
24.98822604169193 4.984391271048316 0
75.00525895297906 4.987647761512179 0
9.968206638371809 14.970561951322 0
9.968692898996244 9.969060438603135 0
90.00348831427398 9.995560571515249 0
95.00933191731828 180.0040564432813 0
95.00588849801841 19.99416813900121 0
90.00138676371698 4.998075382591741 0
9.998044036193052 190.0051311657205 0
20.00069234335584 195.0103434695726 0
4.993262595861778 180.0030396599387 0
4.999058938454855 190.001910869279 0
49.0837432943204 85.15343070558066 0
50.36538112315262 113.8058077785148 0
40.21142090967561 91.38342971635568 0
40.78152979110082 109.7832623964623 0
59.91306969561867 109.0060547538475 0
66.80855257471879 101.620963669977 0
48.89013987705451 82.42103199486982 0
9.698357781491701 65.0511611509222 0
60.18629455019379 85.45300696454656 0
65.0222459036117 9.92870287125788 0
85.50595323296162 135.2043962511112 0
85.26896444599728 155.0716382030991 0
33.04284929100072 97.3424156977796 0
36.63285599573832 89.50121858767494 0
68.11754260479051 104.992836931493 0
30.00888099119051 190.0678710938209 0
9.964944417930987 175.009184550213 0
90.04578254775187 29.96992370675925 0
90.3822414090651 120.1748502813447 0
90.34106078417892 84.90965681909948 0
90.3164500891244 69.90200837105584 0
90.32940113963501 130.1858386953798 0
90.21665075742435 54.96607584722437 0
90.18317643847413 150.0202467897886 0
37.70357195220313 113.0893445974783 0
9.789679759503802 145.0712043299206 0
90.09750653578752 39.97164722889779 0
9.90221286935685 34.96239964423006 0
90.06120310552386 170.0241959207337 0
75.01786517062312 190.0283216610497 0
68.21527381665975 91.86159090706204 0
70.49631916137045 100.1694897098239 0
32.08374204941883 101.0817875490448 0
90.34018305631675 79.8906702586271 0
90.29663940358773 64.91612891389417 0
90.3815712740022 99.95755710058067 0
90.36740795022467 94.91869181712408 0
90.41073124362818 105.037542586971 0
10.0053961448922 100.244679577499 0
9.707160350493144 129.9938401173195 0
9.677205581279065 80.18406552626305 0
90.17368020876653 49.97201352504034 0
90.40558708686112 115.1491403816881 0
90.21819935402659 145.0301687445127 0
9.910703468001769 95.10620051929682 0
9.701037940110265 115.157122569513 0
9.692584845034235 120.0818381036268 0
9.82004375307387 150.0583406648862 0
9.65807926610775 75.16562934716345 0
9.811499320542291 49.92080912355882 0
54.99727793015388 9.889255734892364 0
9.883203351515427 159.9983469905567 0
40.03467516693915 190.1092284846342 0
9.760745839760661 90.08505736352365 0
9.743863000482014 110.2740984435582 0
60.03593575590767 190.0811513996135 0
9.872475164982932 39.95109457006282 0
39.95938764242987 9.906806110656843 0
34.95325179707574 9.926512120727811 0
90.08715881801319 165.0313588494174 0
44.96707096295322 9.887360318038684 0
50.04070466064195 190.1128563498143 0
24.96588720647149 9.962330116324338 0
70.02450324947476 190.0429881895707 0
9.912264071524374 164.994407364913 0
9.950740609074495 24.97057068263432 0
90.02260556780224 180.0130556801359 0
19.94836530913555 14.95131994825159 0
14.94178622200362 19.95236314272973 0
19.99534446903511 190.0257980419896 0
75.01727382043383 9.969688495718264 0
80.01211203154017 9.98173879022208 0
14.95929264236966 14.96258904237725 0
90.01136343376655 185.0089511451664 0
90.0153347960476 19.98383346983334 0
85.01607162838052 14.98023645528736 0
85.00877750945661 190.0107007959296 0
14.99571282069263 190.0134681535191 0
90.00878173156013 14.98978414065099 0
9.992293062843546 185.009746827912 0
56.22124131748694 83.86903601047524 0
45.00006530835489 83.1382523867544 0
61.0157190441774 114.1614257399236 0
48.67140754592407 117.5794206500516 0
36.12954336480142 109.9546388012659 0
64.78239786334099 107.949831189403 0
53.52521305419187 116.8726818040547 0
50.06039145546598 185.2140474789721 0
44.92371623302067 14.78865471256356 0
44.20381415714319 120.8969389611062 0
85.31616154395672 49.89275927888113 0
56.37623518419041 119.5691549693979 0
14.7803964865196 160.0578301931146 0
14.65595265172102 49.86610105233326 0
70.06251188863789 185.0822070607253 0
85.57822935364833 69.72803943876137 0
14.46291069772703 115.3799740919254 0
14.47998273019312 130.1119397956081 0
19.90541457309225 19.91941551582041 0
14.57101610317534 80.26369569569 0
85.60101763946963 84.79331149113331 0
29.38563747063884 100.2522082895325 0
71.71217896898943 103.9659928528315 0
85.76999693686098 115.336867302892 0
15.86641878297411 100.5942883392631 0
32.78486471393504 113.0415812676516 0
85.59497499468344 130.2731719232072 0
85.73744414606514 105.1768592490269 0
9.733847647411668 59.98123470552272 0
14.76287513451137 39.89541382465792 0
34.89063702696345 14.85644840331142 0
85.16005237905755 165.0698673516924 0
24.922981532723 14.92601775362747 0
85.03213590868205 19.96424475318548 0
34.42379475892194 93.40236582459171 0
14.87419344758426 94.97596700249905 0
85.54226493972565 64.76747480839792 0
9.768063569078887 54.9345043938122 0
90.37284802332248 125.1938660136146 0
85.67848030498278 99.92450210306579 0
85.3368088671408 150.0648543518343 0
85.44863789998317 140.1205351666568 0
55.00457597135753 14.79501487179383 0
40.02893709433737 185.2018916242512 0
90.07116383072022 34.96692850798897 0
60.07398530250791 185.1553974517621 0
14.52665300389857 110.6076581882016 0
14.57760279685137 90.12639478296947 0
9.751848120545676 140.0579982611447 0
9.719533939747775 135.0329544057723 0
85.21496198441196 160.0792799339734 0
85.60499379501988 79.75049974635503 0
9.658897740188767 70.1143150035192 0
60.01440794705456 9.904289562340683 0
85.65083396934149 94.79864844025933 0
35.01953232589651 190.0936044067876 0
75.05034670096556 185.0568578887573 0
85.04352727941924 180.0307539078388 0
14.44504639035855 120.2265047233255 0
9.925593056574227 29.96465031932993 0
85.40082156135321 54.86402457624332 0
75.04181808722652 14.94029445725043 0
14.90535765377736 24.93430323245481 0
85.18349711914961 39.90512889480038 0
14.66979820765774 150.1524387837183 0
9.939265291565933 170.0027698936302 0
70.02373028569201 9.948805947968886 0
90.04207920347511 175.0198804124504 0
24.99767071833227 190.0463130703677 0
80.02922721143371 14.9619439747216 0
9.980578385827933 180.0128090563155 0
85.02269765991095 185.0202915266281 0
90.02978241612362 24.97404807131004 0
14.98419236072963 185.0243727726818 0
39.89772082144363 118.2845478308478 0
73.06195385417632 95.06658393809207 0
64.22993492282143 87.00557968674431 0
52.49959577253831 82.81040768538091 0
39.90565835725567 85.10646254322469 0
58.82276210507502 116.9252189186561 0
51.66016623494376 118.6093078238098 0
63.13294317415891 111.1717341131339 0
30.77168493159157 104.5357150729261 0
33.30172485470022 109.383668586759 0
68.22511663145552 108.6819208304728 0
48.99150494809017 78.49654149957713 0
80.64587205128321 54.70490122487703 0
80.53696286197753 150.1656895117706 0
59.87909946061539 123.0328607821766 0
40.43343297620046 121.2999387072186 0
80.92599727621507 69.50993443449123 0
80.9488149507586 130.3205159778243 0
65.56051817888749 82.54212825573154 0
34.88105759885515 83.89276207585385 0
14.36484601680855 70.15386699521 0
80.95599895294129 84.82100720176994 0
30.10384942011516 91.86236874660186 0
19.13863859622045 115.6925615043429 0
19.84352373851107 24.87924073699312 0
70.12700404125981 180.1401216554738 0
67.31208655124617 114.4007220923697 0
14.88528899440653 170.0378231346092 0
29.98169095412792 185.1266857032155 0
27.53886849087568 102.4706462288425 0
19.505747755929 94.5933390910689 0
72.27956709415585 108.1071163812751 0
80.26442393834581 99.9183790806058 0
72.47486419762878 90.87624972299949 0
14.85869892319394 29.91727070442644 0
80.34594229291575 160.1549536940862 0
85.07731253945491 175.0449239251532 0
14.96207686521822 180.0349122578377 0
19.97546558484219 185.0495913627562 0
28.48766622096461 112.2999314283411 0
74.26451032888606 98.77268264968434 0
85.79029012960208 110.3442088317414 0
14.44005202796361 75.17308329072141 0
14.50941176971191 135.1628328480796 0
14.59193254771676 54.89141113116461 0
14.61011676733974 145.189859143659 0
14.83130471294174 165.0455098809936 0
34.99884085187821 185.1713638954239 0
55.0678570750615 185.1944470412635 0
60.04125066965381 14.82467321982793 0
70.05609873948174 14.90494138226831 0
52.98396856815039 122.0235801523666 0
39.89635064092739 14.81470078451052 0
85.13626655363113 34.90948993899231 0
85.0583002830556 24.94370987203929 0
14.70610770523863 44.87730900807568 0
14.80801523856046 34.90232681627607 0
85.63640200207533 89.81138101621578 0
14.7649196793171 105.8741488590065 0
85.60590718948244 74.71970218654408 0
14.56827466608329 85.27437612959314 0
85.3996662104029 145.0827798945998 0
14.4471787880439 125.1426015468615 0
29.89921045497359 14.8917973377061 0
85.11838745051121 170.0595117850787 0
80.68831360970695 140.2141472606599 0
85.7413779878423 120.3185366632821 0
85.68981738840563 125.2956089630433 0
14.4467175995414 65.09012844783793 0
85.48480176844434 59.81317670883885 0
24.8556843403324 19.87159661516318 0
85.24908820215624 44.8952705137755 0
75.08382972774073 19.89499222862265 0
80.07301427092426 180.0588158663011 0
14.71990121849392 155.1077772981434 0
65.07447000335397 185.1201826882765 0
80.05773730773967 19.93264965860313 0
45.0454733314694 185.2201278647825 0
49.96096311885227 14.77780938040669 0
80.03801792688523 185.0373610679279 0
56.89546188364712 79.69058143055426 0
39.35750530932789 80.45405576274894 0
28.2777791137821 96.80842776880338 0
48.20568423072719 121.2855498811397 0
63.26984215146371 115.9715706717673 0
36.77631147512163 117.565995421275 0
29.36459747191291 108.1871295036688 0
44.85209970714354 19.64661299401898 0
45.03149689302133 180.3598562246908 0
19.37030673753681 54.859872836338 0
19.4577700106777 150.2880392719545 0
19.72819328806292 165.1387518162266 0
18.87019616362769 70.25321374959282 0
19.14564670113185 130.2685883929946 0
24.76434502766541 24.80280921191275 0
20.27910705754116 80.12370203541553 0
80.30815824651629 39.79254713375706 0
34.94536189339519 180.272674385373 0
81.26939507805244 120.485316345667 0
19.93914692872807 180.0749548136127 0
76.94349547092708 94.48831911204287 0
80.95020094820319 74.56963339128811 0
24.43886644813253 106.1386891638115 0
55.01971485465604 19.66180610466218 0
70.11169166445566 19.84011370878509 0
19.60411161396337 39.78358874153614 0
80.77498685771749 59.6251291725188 0
19.76474495582679 29.83573143224668 0
76.58255102305928 106.8835431512712 0
20.25581622395196 98.53240829160546 0
47.76940516747188 125.0237807650768 0
65.87341646010245 119.8604757548304 0
23.96383294775651 111.4860717003924 0
81.14900036965521 125.3824946967666 0
80.9542619809929 79.72479452142107 0
81.05280115986862 89.80569146029252 0
14.55219929421866 140.194021605312 0
81.07326647227882 94.60092440375199 0
19.26109779968546 110.9842890669671 0
68.27853817032612 87.94806502524904 0
80.62216712130864 145.1913294933159 0
14.5288309002554 59.98734599532258 0
24.80151893387561 89.69722348426501 0
19.3193353377026 90.12682707599842 0
43.75240514823341 78.38460110994585 0
80.87470345438821 64.54767525729143 0
61.36340749486629 79.97946170368633 0
50.06218005706789 180.3607558427511 0
39.79983616588553 19.68880047691693 0
29.80950248554768 19.81291475426216 0
19.07995764813894 120.4329703337622 0
80.44517412904369 155.1695365982004 0
60.12279424824754 180.2677181943976 0
80.18881565175634 170.1110391086677 0
80.26515237422198 165.1374140390091 0
65.13640195226127 180.2034442052846 0
65.05923766698763 14.86203263823628 0
80.7959821631446 135.2627217993234 0
85.09524389925781 29.92247121933602 0
75.1476391587759 24.83386476199039 0
75.10485357986025 180.0964654923731 0
19.44120784823864 49.80086137453829 0
14.92640272475492 175.0425130188419 0
24.9709973621685 185.0862928808871 0
80.12761432727709 175.0868987545882 0
80.10159561912175 24.89408319296851 0
19.63536590120286 160.1790646305756 0
80.52242689236138 49.74578386134862 0
53.045989115894 78.9416559708727 0
72.62168210120883 112.513713609958 0
36.26783810459011 81.19586624224043 0
32.48369747072542 117.0017042986635 0
24.93201611893226 99.7877452162902 0
75.62675921966027 102.5387639204738 0
81.28569042728354 110.80287161112 0
32.48747504520347 87.67547392222851 0
81.02390222333025 105.7972015982911 0
56.31265946469262 124.3374290174136 0
36.46188966475231 121.4385355356659 0
62.14666950076079 118.7464133432278 0
44.70384425089823 123.8531129203371 0
49.47385276804389 74.26561233690668 0
50.03901998575003 175.5354625027438 0
41.93329455038478 125.9051163421188 0
76.14370123941274 59.37208386583085 0
60.24290314907033 127.9813986930623 0
24.07398402375126 54.83855247867139 0
44.75835506926439 24.46771343929479 0
75.77732738875333 150.3364615044286 0
24.46631037780927 160.3292371394755 0
59.95071507729978 76.21216013790334 0
60.16843251441448 175.4026743596233 0
37.81371347993919 77.15414662220662 0
76.39216164134602 69.28840560066811 0
76.37676640136945 130.2488881510928 0
75.4999934716124 160.2673978728857 0
29.6874263846696 24.71041363078853 0
70.19544424799729 24.7523881320345 0
68.25986216635238 83.83592433491415 0
31.24911465528587 81.89252412224567 0
75.23434645514475 29.76208688828405 0
65.11876235237399 19.77396182005693 0
24.919946515723 180.1337810910704 0
19.88199468256079 175.1001067546122 0
76.34988225879079 79.96731514154119 0
76.46279624165052 85.25832960772971 0
28.45253380494062 85.5329243656719 0
18.92768330454525 74.82649415236804 0
76.8096629332186 125.4007104100855 0
19.21668136630155 135.3123145265026 0
19.37653432452541 145.3322587226694 0
76.90794322274343 111.5381928650904 0
64.80848652967978 124.1111093089142 0
75.86261808096759 145.3706006156148 0
76.71010715736105 90.12470270317338 0
75.96555789350005 54.47290781582637 0
19.27106985118587 103.1676223438883 0
39.98644171642965 180.3300295264508 0
49.93238352641895 19.63533804112317 0
80.41101685582402 44.7688256223265 0
81.3344220931419 115.6624260450602 0
19.51881539722525 44.77491839959973 0
19.68084754096878 34.79893732206808 0
34.78570670857535 19.74636859489305 0
19.32968284036989 85.57776833693717 0
70.21192628518959 175.2115221062046 0
80.23019043758401 34.81601131121361 0
19.34610664525979 60.04787926480481 0
19.21851729656787 65.28213972858872 0
19.07794569464671 125.2912456037278 0
60.08663390253507 19.71064072990984 0
75.3735014681064 165.2291380330182 0
75.26636208335593 170.1870725934213 0
75.98379950231131 135.2378916276326 0
29.91824194568351 180.2040960755329 0
24.64891956819583 29.72329545455934 0
19.80877512482768 170.1224539369653 0
75.17742266046015 175.1432537611377 0
19.53857202723027 155.2350420742167 0
80.16237702294951 29.85071171633295 0
55.09088032491813 180.328419023458 0
52.07939567141306 126.4716312035515 0
70.18774813027679 117.3948254207355 0
23.79896876402139 94.82008101416426 0
28.12547970469267 116.5311235074408 0
23.69826127833296 116.079769130023 0
32.23876269574 121.1376901317452 0
77.00578354312752 97.60183033236436 0
21.94344120053161 101.880035692191 0
67.18506285703792 78.23432191242418 0
19.3041522318971 106.4122599076986 0
46.73369388027983 128.585266630366 0
40.63471870408033 76.13906720817377 0
36.69283205351707 125.611519713618 0
71.58927718685329 59.06682312843838 0
70.30709457223685 29.64819258521887 0
41.30139783007705 130.6381691432371 0
40.700855398501 73.31142061325674 0
71.09911889621435 145.6178480312827 0
23.71219128469436 130.334645262688 0
24.7011646310404 65.77583247949582 0
24.1085435505711 145.4977660602953 0
64.17922578487001 128.3886949104616 0
39.90942385888308 175.4785943941409 0
29.53426570823675 29.59157389667851 0
24.28685736657811 44.62447409606337 0
24.32056430342892 155.3908845040666 0
70.62905463276157 160.41139956352 0
55.03614964065538 24.49601595845458 0
75.60928975676092 44.59989745617121 0
34.64689191883055 24.61096281339539 0
65.20379633270083 24.65822876063704 0
75.34222737396941 34.69219932698829 0
70.31349480760075 170.2843812266271 0
72.72206516139087 125.2444044810248 0
24.2482687358265 76.4292178454632 0
72.02367153497957 129.7696010263639 0
53.57467622879604 74.83914721471912 0
77.0814087348069 116.115632710392 0
24.05927702784953 60.00170291310405 0
45.04318626421565 73.76781961061945 0
49.89233123108739 24.45798244886706 0
55.09974417386421 175.4889989386497 0
44.97085058408313 175.5258217925949 0
75.78472217137519 49.54426251849591 0
24.1732013420711 49.70528083479164 0
72.21622890143458 86.27763620713036 0
39.67242161763595 24.52488504613918 0
24.73496466261822 170.2351168640387 0
75.64193669747041 155.3067105698614 0
29.82321810624546 175.2891804006413 0
24.5248224335443 34.65387245826301 0
19.29353704362311 140.3392743382597 0
65.20667218630575 175.3035543123858 0
76.38891742512297 74.56230273063854 0
24.60702474642094 165.2847625464191 0
24.83980385429828 175.1886777657125 0
75.85342599023603 140.3309734624526 0
76.30518116007894 64.28208079110722 0
34.29911821921292 78.96841210587115 0
71.47960848602968 80.72137281292817 0
64.04354378250449 76.04791958806031 0
69.51165770366629 120.5473921357385 0
77.06325559825315 120.7039482161284 0
23.56592285960595 120.649679453137 0
22.8186488477725 85.90335759026495 0
56.27411078157552 127.4983108471355 0
24.80842112445986 82.98628147840442 0
27.94348555471267 120.8821175492037 0
23.05916783108799 97.72374923896867 0
73.07862679187116 116.7258424525272 0
49.95893464847804 170.6709438981291 0
49.90145551623864 29.25601231432702 0
28.841802356361 49.68844512671475 0
29.08085563632172 155.5947174727599 0
61.20444536127998 73.53737934771333 0
49.90808827408874 70.02640788740631 0
29.36043111279054 34.4899230038705 0
65.32166309324219 29.52337547182674 0
28.48454854020603 59.99376778389156 0
71.84954722279929 63.98950689894958 0
70.92665372398234 140.5910235505003 0
24.01096345425596 140.4839723404933 0
70.83579078414097 155.4770761837079 0
71.08078647075313 49.29679438060629 0
72.04942374064109 69.04944177477867 0
40.83339993632062 69.32286748171788 0
27.97319651575081 125.4317456441601 0
22.9545228529202 70.98473606636354 0
70.26673728124746 134.8371797417594 0
44.70805300407693 29.26783382140726 0
34.47893613948036 29.45420463150037 0
24.20010813098234 150.4566322653745 0
55.09305343261796 170.6179382277219 0
65.29790167554592 170.4043543632685 0
39.74532355567379 170.6240423102701 0
24.39975773203533 39.61547783000902 0
71.01046459044217 150.5500999372198 0
23.87835003596237 135.4025021477185 0
60.1446459641176 24.56824476148967 0
75.46879542961599 39.63705164152064 0
29.68720651096003 170.3754269003022 0
70.44432493177324 165.3532097046809 0
71.34037512009071 54.18412283510425 0
70.44569641770084 34.5433985551946 0
34.84342670218647 175.3904016842264 0
29.29344860293551 160.5270171147788 0
45.68633378513196 132.1355339230176 0
60.49724870226213 132.3286560232323 0
36.39412503654081 73.64394035104638 0
36.99958789287087 129.9369154876231 0
21.99877964695573 74.20290196342042 0
68.03300446511892 128.986411776671 0
27.72393637197296 79.18459034102244 0
23.59085610625933 125.4169386348118 0
51.44272605573777 131.451598874696 0
68.79057257057451 124.7547622971013 0
57.26590745192798 75.63049186852788 0
73.13642698200057 120.8415843471032 0
32.33844431705936 125.5111668420077 0
66.75232829702435 53.83837531962813 0
50.16722645151393 34.05765641627286 0
40.71576480640483 134.4430787468314 0
66.35045553038896 145.9315199359553 0
55.15135998793722 165.6110796290901 0
65.49124898704126 34.38308907244325 0
34.3253396228362 34.39162282064661 0
28.68998115464774 135.4710102352074 0
65.99536817329968 155.6863139740259 0
65.26774198968539 136.4704666665295 0
33.85105732392174 155.8477901525154 0
70.62164875237129 39.45399545383337 0
65.44813130131271 165.4969044302561 0
60.24425409045452 29.40488975482442 0
28.26877417296889 63.61639401514003 0
67.88463862723705 68.83748989342433 0
54.02756028360236 70.63983872864375 0
28.70320584751517 54.93346443388182 0
34.68466758514991 170.511434230698 0
28.92961572554498 150.6862966434032 0
39.55618194805874 29.346185671376 0
70.84045934600758 44.37212172065511 0
55.11215637327491 29.3141061069869 0
29.50665743921406 165.4548636194548 0
67.09238221564213 58.70041634285705 0
64.29474297960327 132.4021534397014 0
60.22244400200253 170.5135342375286 0
29.18458515341453 39.4664653981591 0
28.99875186017485 44.55304498269128 0
28.84992735409057 140.6932399367969 0
44.82868313683878 170.658408820942 0
65.32481660743741 73.2222448496517 0
31.33040438427735 74.94855604871664 0
57.86569764381626 71.6889194499385 0
71.99279523943842 74.35900342515936 0
48.73965103104784 133.5075689308916 0
67.39526989354991 131.9567281895351 0
45.45588696251785 69.66624776633661 0
56.44576936197738 131.9682047441942 0
26.68504718319226 72.74464527171664 0
37.46915430298984 133.1589831236217 0
32.8303127461983 130.1269273778121 0
33.15767606239742 55.164371707152 0
33.66286991793659 151.0014194187046 0
49.93870228846911 65.65694508975045 0
55.35730222281736 34.11835219910423 0
62.62184137543754 58.23484478339575 0
39.44881697290734 165.7433924844907 0
41.33142927903589 65.25291683723728 0
39.57673785151312 34.32381819372222 0
49.83196143317976 165.5510752737018 0
58.46721386933557 67.317720669829 0
33.47369461517072 60.77891141332958 0
35.26132801751664 68.70880728356055 0
61.09836995131281 136.7655196966178 0
60.46645294888424 34.23601708009063 0
60.37195044065182 165.6011843704197 0
34.153376096021 160.7365869740927 0
66.06294551947144 44.1233207075695 0
44.96234063947627 34.18033693140213 0
33.74483233974105 44.84140145762889 0
66.41250604496484 48.98554180041276 0
34.44707378257804 165.6203416747748 0
65.69188608283913 160.5832899049641 0
66.24577133115865 150.8134133220588 0
66.08188261980563 141.0423165207288 0
65.74425175656411 39.25058541845971 0
67.44221648382114 63.74000468145626 0
28.86673581614137 145.7581777835717 0
45.01828747027164 135.8135860372328 0
34.14493605899608 39.622452888556 0
34.52128239781153 135.5887697866287 0
28.77327379354235 69.0102552648561 0
28.36378841347522 130.3593738976594 0
63.23212886939778 69.31531926206053 0
31.61030720524362 70.81452178481224 0
68.00030891881033 73.71736515611654 0
52.87034192298428 136.7598892516252 0
50.85968401827643 38.86835023317725 0
38.38228535130812 151.370628387898 0
61.77043215299658 48.6640050167316 0
61.56265927652273 151.1043696400447 0
38.52834936386068 46.13459744720976 0
55.57505351125234 160.5057550786873 0
39.04778232257613 160.8649775335937 0
60.82051470067631 39.062220051922 0
36.82988091944146 59.02473165190038 0
61.15164845821144 155.8607012265427 0
33.39802716342334 50.15631340839565 0
62.21995928257688 53.43082351708527 0
45.51823677302072 65.42377858579174 0
60.70433327223192 160.6693762861703 0
37.40520408667717 63.98258716448278 0
40.30285620182514 40.59109345551986 0
54.19442074956315 66.28547575968088 0
62.96022405647539 63.30161855965715 0
44.55393587723131 165.6451902245992 0
39.76090292158463 138.1929591588628 0
33.89452681757302 141.2929025899559 0
33.68209117311383 146.207891136661 0
61.73035094155631 146.3037282813295 0
61.55991524279476 141.4706450192594 0
56.88803728879053 136.7759276517992 0
48.95271879982712 136.6203899304916 0
37.14865895370342 55.80708494765967 0
57.75779127834113 53.01823423912906 0
43.97834974255903 160.6786854474437 0
49.79696590578354 61.0635417082805 0
57.27381401416018 146.6847924531971 0
55.87306382574545 38.92312924587863 0
37.78903483908812 51.27520995839487 0
43.76821638939231 44.17599050885497 0
38.45832564205613 146.851909061361 0
49.6026087532687 159.3732920464189 0
38.64892837546093 156.046379419188 0
57.18945401250649 141.7336385282221 0
61.29234304832782 43.87817224073437 0
45.91162749289533 39.16710999096174 0
44.32905883865847 139.6928321516542 0
38.8959503046377 142.4040196301656 0
57.12616814354284 151.2747382522453 0
58.4968286921039 62.53509842956291 0
41.65506499853792 62.2281276930298 0
58.20495366699495 57.71498299817766 0
39.20621740557811 60.65200092842905 0
31.11555992814642 65.42193309252023 0
56.46688904832772 155.6758105328633 0
47.21697953704025 43.78350783262513 0
52.87748583294233 141.6383286355018 0
52.27539330023258 154.408858372276 0
42.95065556338341 151.6838133790128 0
53.90122922545868 57.15894919908306 0
43.31329109481556 156.0171588096721 0
43.48914423630444 143.6467485881928 0
43.51154313368902 48.26180496654311 0
57.18490037869066 48.37551412654747 0
44.68234934960666 60.29866785888119 0
40.71417527694771 57.31386170593213 0
54.13072960888015 61.75421542541292 0
48.57114598398193 140.8730292352541 0
56.52655388217195 43.68288421932992 0
46.77815044188635 155.7194983592105 0
48.40759919766214 48.1217133502071 0
53.88735063202523 151.244010452774 0
45.78354542618794 55.28708552994713 0
53.42282644545001 52.6645384085437 0
47.51271107340538 145.0880653037038 0
47.90375975814005 151.6327977291348 0
41.88610446443751 53.20560439759483 0
52.70213502233842 48.1812500301395 0
51.81542558486805 43.61868793807467 0
49.71729697350629 56.5474628929076 0
52.0726400312072 147.3162870789511 0
42.93172609268076 147.5604049817304 0
49.32942009470121 52.322889820002 0
46.37621910444398 52.17899402264685 0
46.17080046579682 147.9302903919853 0
$EndNodes
$Elements
5 1002 1 1002
1 1 1 20
1 1 9
2 9 10
3 10 11
4 11 12
5 12 13
6 13 14
7 14 15
8 15 16
9 16 17
10 17 18
11 18 19
12 19 20
13 20 21
14 21 22
15 22 23
16 23 24
17 24 25
18 25 26
19 26 27
20 27 2
1 2 1 40
21 2 28
22 28 29
23 29 30
24 30 31
25 31 32
26 32 33
27 33 34
28 34 35
29 35 36
30 36 37
31 37 38
32 38 39
33 39 40
34 40 41
35 41 42
36 42 43
37 43 44
38 44 45
39 45 46
40 46 47
41 47 48
42 48 49
43 49 50
44 50 51
45 51 52
46 52 53
47 53 54
48 54 55
49 55 56
50 56 57
51 57 58
52 58 59
53 59 60
54 60 61
55 61 62
56 62 63
57 63 64
58 64 65
59 65 66
60 66 3
1 3 1 20
61 3 67
62 67 68
63 68 69
64 69 70
65 70 71
66 71 72
67 72 73
68 73 74
69 74 75
70 75 76
71 76 77
72 77 78
73 78 79
74 79 80
75 80 81
76 81 82
77 82 83
78 83 84
79 84 85
80 85 4
1 4 1 40
81 4 86
82 86 87
83 87 88
84 88 89
85 89 90
86 90 91
87 91 92
88 92 93
89 93 94
90 94 95
91 95 96
92 96 97
93 97 98
94 98 99
95 99 100
96 100 101
97 101 102
98 102 103
99 103 104
100 104 105
101 105 106
102 106 107
103 107 108
104 108 109
105 109 110
106 110 111
107 111 112
108 112 113
109 113 114
110 114 115
111 115 116
112 116 117
113 117 118
114 118 119
115 119 120
116 120 121
117 121 122
118 122 123
119 123 124
120 124 1
2 1 3 882
121 809 868 889 861
122 803 859 895 848
123 832 782 848 896
124 759 809 861 754
125 741 787 633 640
126 461 385 464 480
127 460 386 391 505
128 720 734 638 639
129 546 641 496 474
130 468 646 696 619
131 696 786 830 819
132 694 662 661 713
133 521 567 552 520
134 915 889 868 845
135 679 477 572 566
136 888 838 901 932
137 909 895 894 902
138 926 908 873 924
139 826 787 709 833
140 924 941 935 926
141 907 900 926 935
142 682 556 684 650
143 784 687 617 690
144 152 239 331 305
145 856 841 769 812
146 456 472 632 573
147 578 686 691 714
148 305 331 402 314
149 462 540 556 483
150 887 843 853 911
151 332 462 483 401
152 622 647 574 467
153 708 792 737 642
154 846 836 898 880
155 877 920 881 885
156 415 404 338 344
157 487 720 639 648
158 155 332 312 256
159 827 845 868 749
160 714 831 750 615
161 570 428 429 497
162 843 814 764 853
163 791 827 749 624
164 927 912 933 940
165 498 575 408 417
166 431 333 319 400
167 946 941 950 940
168 712 645 608 654
169 693 788 761 867
170 841 856 851 878
171 918 886 846 880
172 798 850 820 767
173 416 334 320 395
174 753 713 620 811
175 566 572 684 556
176 495 240 342 403
177 811 620 719 747
178 803 848 782 819
179 742 738 679 678
180 892 913 906 893
181 537 505 675 564
182 936 928 905 921
183 419 335 337 407
184 645 562 610 608
185 889 840 818 861
186 887 911 921 905
187 944 921 911 872
188 715 652 557 702
189 771 757 802 858
190 941 924 947 950
191 850 885 857 806
192 578 714 615 465
193 920 877 907 923
194 703 653 601 718
195 912 927 913 891
196 390 341 322 440
197 845 888 932 915
198 642 567 471 628
199 856 817 780 851
200 886 918 916 842
201 913 927 947 906
202 805 774 703 815
203 945 948 939 925
204 417 408 174 191
205 795 746 816 839
206 8 253 142 134
207 833 709 785 762
208 642 628 710 708
209 909 902 946 922
210 813 748 700 766
211 769 697 779 812
212 750 838 888 810
213 582 506 388 541
214 133 132 302 254
215 609 476 576 640
216 641 546 762 785
217 338 182 258 344
218 848 895 909 896
219 704 657 582 721
220 946 937 923 941
221 467 574 515 420
222 756 726 643 772
223 633 473 609 640
224 569 511 434 571
225 559 655 509 409
226 477 679 738 584
227 340 185 261 348
228 875 894 797 858
229 404 563 682 650
230 396 345 354 426
231 744 712 737 792
232 495 403 654 608
233 337 335 257 163
234 786 790 708 710
235 901 945 925 932
236 850 806 768 820
237 895 859 797 894
238 705 773 664 635
239 862 893 837 813
240 507 424 326 443
241 496 348 432 474
242 404 650 684 512
243 629 723 585 489
244 561 656 510 488
245 555 513 431 568
246 696 646 790 786
247 713 753 808 694
248 658 514 399 549
249 842 884 831 760
250 936 921 944 943
251 677 743 563 484
252 663 516 438 584
253 335 336 180 257
254 638 568 475 639
255 318 342 184 262
256 855 874 910 852
257 464 314 402 485
258 414 312 536 476
259 618 649 466 560
260 319 333 187 260
261 429 428 153 188
262 716 625 586 674
263 345 346 186 259
264 872 903 934 944
265 584 438 396 477
266 936 943 939 948
267 323 420 515 343
268 344 353 427 415
269 567 642 737 552
270 258 160 353 344
271 321 418 148 266
272 885 850 798 877
273 586 625 727 589
274 475 400 511 569
275 259 161 354 345
276 497 643 726 570
277 320 334 189 264
278 265 235 175 190
279 648 639 475 569
280 560 523 416 579
281 506 357 360 388
282 568 638 728 555
283 763 755 859 803
284 404 415 484 563
285 502 272 361 387
286 420 323 230 311
287 547 693 772 643
288 673 592 507 660
289 422 350 433 503
290 661 662 522 575
291 670 722 730 637
292 693 547 663 788
293 732 754 688 618
294 653 525 390 601
295 226 137 274 350
296 511 246 336 434
297 914 920 923 937
298 521 520 318 418
299 707 776 665 666
300 836 846 753 811
301 323 343 199 271
302 513 243 333 431
303 716 767 820 625
304 227 138 275 352
305 671 594 479 659
306 878 900 890 841
307 501 435 315 482
308 722 775 724 730
309 640 576 739 741
310 654 403 520 552
311 815 852 860 805
312 199 343 265 190
313 516 236 346 438
314 513 555 470 395
315 325 347 197 268
316 163 179 240 337
317 659 707 666 671
318 637 596 481 670
319 554 571 486 681
320 426 572 477 396
321 335 419 434 336
322 162 180 336 246
323 183 242 353 160
324 660 706 634 673
325 699 719 595 655
326 432 307 522 474
327 547 397 516 663
328 941 923 907 935
329 419 486 571 434
330 720 487 330 573
331 551 651 423 501
332 182 338 244 181
333 407 610 486 419
334 179 184 342 240
335 557 652 532 422
336 755 763 667 731
337 859 755 692 797
338 181 244 354 161
339 260 162 246 319
340 354 244 512 426
341 432 149 267 307
342 266 175 235 321
343 345 396 438 346
344 512 244 338 404
345 185 340 242 183
346 151 187 333 243
347 353 242 514 427
348 394 479 594 436
349 409 509 232 356
350 575 498 543 661
351 732 579 470 627
352 668 636 730 724
353 643 497 397 547
354 415 427 577 484
355 440 466 601 390
356 154 186 346 236
357 754 732 627 759
358 334 416 523 233
359 310 406 321 235
360 262 148 418 318
361 588 587 666 665
362 514 242 340 399
363 322 341 201 269
364 595 543 498 393
365 364 351 392 500
366 512 684 572 426
367 264 151 243 320
368 746 764 621 715
369 193 137 226 360
370 667 628 471 591
371 144 198 273 230
372 436 329 363 394
373 587 598 671 666
374 261 149 432 348
375 150 189 334 233
376 591 310 421 519
377 327 356 205 279
378 205 356 232 147
379 627 728 828 759
380 360 357 278 193
381 695 644 726 756
382 762 546 662 694
383 263 154 236 339
384 772 801 823 756
385 326 424 200 277
386 942 904 876 928
387 500 481 445 364
388 348 496 399 340
389 513 395 320 243
390 174 408 307 267
391 511 400 319 246
392 593 599 673 634
393 589 529 425 586
394 138 227 361 195
395 742 761 788 738
396 444 544 672 528
397 911 853 795 872
398 587 588 411 518
399 728 627 470 555
400 874 929 934 910
401 492 597 448 369
402 357 506 410 358
403 573 330 221 456
404 351 364 196 276
405 852 815 758 855
406 766 544 644 695
407 488 510 327 439
408 406 310 591 471
409 758 718 649 777
410 270 147 232 349
411 235 265 421 310
412 813 837 804 748
413 893 862 823 892
414 806 857 701 776
415 518 490 598 587
416 522 307 408 575
417 271 144 230 323
418 411 430 273 359
419 723 629 701 757
420 526 530 599 593
421 525 231 341 390
422 393 498 417 349
423 257 47 48 163
424 162 45 46 180
425 260 44 45 162
426 309 433 192 281
427 474 522 662 546
428 325 499 444 347
429 180 46 47 257
430 259 102 103 161
431 161 103 104 181
432 182 181 104 105
433 731 647 692 755
434 258 106 107 160
435 182 105 106 258
436 731 519 574 647
437 163 48 49 179
438 184 179 49 50
439 315 435 194 282
440 489 585 311 430
441 160 107 108 183
442 889 915 917 840
443 186 101 102 259
444 883 899 929 874
445 187 43 44 260
446 269 150 233 322
447 584 738 788 663
448 858 802 881 875
449 654 552 737 712
450 328 359 203 283
451 183 108 109 185
452 874 855 794 883
453 151 42 43 187
454 657 410 506 582
455 143 197 347 234
456 7 256 146 131
457 203 359 273 198
458 887 905 928 876
459 725 770 559 656
460 821 822 699 770
461 263 99 100 154
462 186 154 100 101
463 268 153 428 325
464 757 771 622 723
465 756 823 862 695
466 264 41 42 151
467 185 109 110 261
468 184 50 51 262
469 387 581 674 502
470 365 439 164 286
471 665 629 489 588
472 516 397 339 236
473 188 98 99 263
474 393 509 655 595
475 261 110 111 149
476 189 40 41 264
477 262 51 52 148
478 817 729 623 780
479 268 96 97 153
480 188 153 97 98
481 191 270 349 417
482 919 808 753 846
483 517 237 358 410
484 490 518 328 447
485 189 150 39 40
486 269 38 39 150
487 352 423 531 227
488 504 590 309 446
489 852 910 879 860
490 148 52 53 266
491 149 111 112 267
492 425 355 272 502
493 349 232 509 393
494 350 422 532 226
495 900 907 844 890
496 543 595 719 620
497 357 358 156 278
498 202 195 361 272
499 347 444 528 234
500 410 657 583 517
501 530 526 441 449
502 722 670 545 729
503 807 816 702 773
504 634 689 631 593
505 266 53 54 175
506 190 175 54 55
507 548 669 561 478
508 479 394 529 589
509 443 326 231 525
510 689 752 705 631
511 267 112 113 174
512 191 174 113 114
513 197 95 96 268
514 355 238 157 280
515 525 653 550 443
516 656 561 669 725
517 635 664 503 590
518 591 519 731 667
519 201 37 38 269
520 724 779 551 668
521 583 630 548 524
522 795 839 903 872
523 822 821 864 854
524 885 881 802 857
525 367 398 368 372
526 329 287 204 363
527 355 425 529 238
528 628 667 763 710
529 533 527 437 451
530 545 500 392 600
531 524 548 478 398
532 697 717 542 651
533 878 851 804 908
534 630 698 669 548
535 360 226 532 388
536 342 318 520 403
537 196 364 445 284
538 550 774 706 660
539 593 631 558 526
540 478 561 488 442
541 517 583 524 412
542 361 227 531 387
543 466 649 718 601
544 770 725 751 821
545 592 317 424 507
546 596 316 445 481
547 776 707 768 806
548 824 745 616 717
549 801 865 892 823
550 409 510 656 559
551 659 479 589 727
552 141 201 341 231
553 412 524 398 367
554 672 600 392 528
555 523 440 322 233
556 279 164 439 327
557 439 365 442 488
558 143 94 95 197
559 275 194 435 352
560 774 550 653 703
561 190 55 56 199
562 729 817 775 722
563 586 425 502 674
564 590 504 558 635
565 778 706 774 805
566 274 192 433 350
567 366 447 165 293
568 636 668 482 597
569 592 673 599 508
570 544 444 499 644
571 430 411 588 489
572 794 777 688 818
573 398 478 442 368
574 549 641 785 709
575 689 634 706 778
576 637 730 636 553
577 596 637 553 491
578 191 114 115 270
579 635 558 631 705
580 370 446 158 289
581 597 492 553 636
582 630 583 657 704
583 773 705 752 807
584 317 592 508 452
585 412 362 237 517
586 156 358 237 211
587 351 234 528 392
588 594 671 598 527
589 526 558 504 441
590 200 424 317 285
591 369 448 167 297
592 365 247 368 442
593 276 143 234 351
594 199 56 57 271
595 193 17 18 137
596 849 799 860 879
597 727 768 707 659
598 779 724 775 812
599 581 387 531 542
600 467 585 723 622
601 451 437 366 373
602 527 598 490 437
603 195 76 77 138
604 698 630 704 765
605 780 623 700 748
606 508 599 530 413
607 805 860 799 778
608 491 553 492 453
609 514 658 577 427
610 270 115 116 147
611 205 147 116 117
612 447 366 437 490
613 527 533 436 594
614 356 327 510 409
615 541 388 532 652
616 362 412 367 248
617 276 93 94 143
618 316 596 491 450
619 446 370 441 504
620 271 57 58 144
621 752 689 778 799
622 767 716 616 745
623 230 273 430 311
624 482 315 448 597
625 277 35 36 141
626 201 141 36 37
627 560 579 732 618
628 515 574 519 421
629 370 371 449 441
630 765 800 751 698
631 283 165 447 328
632 137 18 19 274
633 202 75 76 195
634 423 651 542 531
635 814 721 621 764
636 278 16 17 193
637 373 251 376 451
638 280 202 272 355
639 138 77 78 275
640 204 157 238 363
641 282 167 448 315
642 557 664 773 702
643 529 394 363 238
644 371 370 289 216
645 281 158 446 309
646 285 317 452 166
647 196 92 93 276
648 497 429 339 397
649 452 508 413 374
650 203 198 59 60
651 144 58 59 198
652 920 914 875 881
653 693 867 801 772
654 625 820 768 727
655 757 701 857 802
656 200 34 35 277
657 854 876 904 882
658 721 814 765 704
659 359 328 518 411
660 372 368 247 290
661 533 451 376 250
662 372 249 248 367
663 843 887 864 800
664 692 771 858 797
665 453 379 450 491
666 280 74 75 202
667 284 445 316 177
668 413 530 449 375
669 286 172 247 365
670 907 877 798 844
671 374 413 375 378
672 274 19 20 192
673 433 309 590 503
674 156 15 16 278
675 748 804 851 780
676 418 321 406 521
677 644 499 570 726
678 329 436 533 250
679 343 515 421 265
680 275 78 79 194
681 375 449 371 252
682 766 695 862 813
683 284 91 92 196
684 205 117 118 279
685 285 33 34 200
686 157 73 74 280
687 377 453 492 369
688 250 168 287 329
689 861 818 688 754
690 249 372 290 291
691 374 294 166 452
692 890 824 769 841
693 536 677 576 476
694 373 366 293 171
695 192 20 21 281
696 908 804 837 873
697 362 248 173 288
698 777 794 855 758
699 240 495 407 337
700 252 292 378 375
701 428 570 499 325
702 194 79 80 282
703 203 60 61 283
704 420 311 585 467
705 288 211 237 362
706 172 206 290 247
707 629 665 776 701
708 316 450 298 177
709 376 207 168 250
710 166 32 33 285
711 204 72 73 157
712 279 118 119 164
713 837 893 906 873
714 249 209 173 248
715 216 169 252 371
716 156 211 14 15
717 288 13 14 211
718 812 775 817 856
719 251 373 171 208
720 287 71 72 204
721 379 170 298 450
722 435 501 423 352
723 251 213 207 376
724 164 119 120 286
725 453 377 296 379
726 206 210 291 290
727 899 883 840 917
728 374 378 217 294
729 291 212 209 249
730 746 795 853 764
731 422 503 664 557
732 168 70 71 287
733 173 12 13 288
734 217 378 292 176
735 281 21 22 158
736 369 297 220 377
737 745 824 890 844
738 500 545 670 481
739 501 482 668 551
740 292 252 169 295
741 215 212 291 210
742 277 141 231 326
743 286 120 121 172
744 206 172 121 122
745 158 22 23 289
746 207 69 70 168
747 210 206 122 123
748 400 475 568 431
749 289 23 24 216
750 283 61 62 165
751 251 208 214 213
752 213 68 69 207
753 295 218 176 292
754 165 62 63 293
755 209 11 12 173
756 212 10 11 209
757 294 31 32 166
758 293 63 64 171
759 208 171 64 65
760 655 559 770 699
761 215 210 123 124
762 214 67 68 213
763 217 30 31 294
764 215 9 10 212
765 600 623 729 545
766 208 65 66 214
767 66 3 67 214
768 216 24 25 169
769 124 1 9 215
770 169 25 26 295
771 217 176 29 30
772 295 26 27 218
773 176 218 28 29
774 27 2 28 218
775 379 296 299 170
776 296 178 219 299
777 178 84 85 219
778 377 220 178 296
779 220 297 82 83
780 178 220 83 84
781 167 81 82 297
782 282 80 81 167
783 87 88 170 299
784 298 170 88 89
785 298 89 90 177
786 284 177 90 91
787 85 4 86 219
788 299 219 86 87
789 651 551 779 697
790 443 550 660 507
791 947 924 873 906
792 767 745 844 798
793 718 758 815 703
794 581 542 717 616
795 674 581 616 716
796 505 537 383 460
797 541 621 721 582
798 929 943 944 934
799 719 699 822 747
800 818 840 883 794
801 715 702 816 746
802 188 263 339 429
803 800 864 821 751
804 523 560 466 440
805 647 622 771 692
806 698 751 725 669
807 887 876 854 864
808 672 700 623 600
809 324 539 605 405
810 221 255 308 456
811 917 925 939 899
812 799 849 807 752
813 697 769 824 717
814 842 916 930 884
815 796 863 912 891
816 142 253 457 380
817 842 760 847 886
818 763 830 786 710
819 863 897 933 912
820 781 829 897 863
821 846 886 847 919
822 691 783 847 760
823 395 470 579 416
824 578 535 626 686
825 465 615 711 602
826 691 760 831 714
827 652 715 621 541
828 863 796 690 781
829 535 604 733 626
830 800 765 814 843
831 505 391 468 611
832 152 221 330 239
833 735 749 868 825
834 480 538 382 461
835 253 8 140 300
836 930 901 838 884
837 618 688 777 649
838 869 847 783 826
839 810 711 615 750
840 461 382 224 304
841 578 381 458 535
842 301 383 228 223
843 255 135 134 142
844 613 459 382 538
845 602 534 380 457
846 825 870 683 735
847 140 254 458 381
848 580 624 749 735
849 469 454 228 389
850 537 389 228 383
851 678 493 405 605
852 459 229 224 382
853 734 720 573 632
854 239 330 487 455
855 254 140 8 133
856 901 930 938 945
857 784 690 796 834
858 494 331 239 455
859 535 458 473 604
860 894 875 914 902
861 735 683 472 580
862 648 554 455 487
863 536 606 743 677
864 302 132 131 146
865 791 711 810 827
866 471 567 521 406
867 221 152 5 136
868 549 741 739 658
869 826 833 866 869
870 414 146 256 312
871 155 241 462 332
872 473 633 733 604
873 711 791 534 602
874 796 891 865 834
875 602 457 306 465
876 899 939 943 929
877 633 787 826 733
878 747 822 854 882
879 255 221 136 135
880 324 384 222 303
881 580 472 456 308
882 331 494 607 402
883 544 766 700 672
884 536 401 483 606
885 480 464 485 603
886 301 223 128 6
887 619 696 819 782
888 304 224 127 126
889 828 734 683 870
890 146 414 313 302
891 389 614 617 469
892 681 494 455 554
893 792 708 790 736
894 332 401 536 312
895 790 646 565 736
896 303 222 130 129
897 480 676 736 565
898 389 537 564 614
899 734 632 472 683
900 809 759 828 870
901 930 916 918 931
902 549 399 496 641
903 480 565 613 538
904 480 603 744 676
905 928 949 938 942
906 626 733 826 783
907 485 402 607 562
908 314 245 225 305
909 620 713 661 543
910 609 473 458 313
911 256 7 130 155
912 606 483 556 682
913 580 534 791 624
914 540 462 241 463
915 305 225 5 152
916 493 678 679 566
917 603 485 562 645
918 463 241 222 384
919 228 145 128 223
920 930 931 942 938
921 127 139 301 6
922 229 139 127 224
923 128 145 303 129
924 505 611 740 675
925 608 610 407 495
926 125 159 304 126
927 313 414 476 609
928 925 917 915 932
929 913 892 865 891
930 5 225 159 125
931 918 880 898 931
932 928 936 948 949
933 832 740 619 782
934 228 454 539 324
935 832 789 675 740
936 130 222 241 155
937 904 942 931 898
938 896 871 789 832
939 469 612 539 454
940 612 680 605 539
941 740 611 468 619
942 494 681 486 607
943 564 675 789 685
944 909 922 871 896
945 784 835 793 687
946 888 845 827 810
947 902 914 937 946
948 744 792 736 676
949 612 687 793 680
950 678 605 680 742
951 781 685 789 829
952 949 948 945 938
953 562 607 486 610
954 606 682 563 743
955 405 493 540 463
956 463 384 324 405
957 835 867 761 793
958 680 793 761 742
959 900 878 908 926
960 556 540 493 566
961 457 253 300 306
962 825 868 809 870
963 884 838 750 831
964 789 871 897 829
965 613 468 391 459
966 458 254 302 313
967 603 645 712 744
968 871 922 933 897
969 694 866 833 762
970 781 690 617 685
971 301 139 229 386
972 225 245 385 159
973 383 301 386 460
974 940 950 947 927
975 612 469 617 687
976 617 614 564 685
977 468 613 565 646
978 159 385 461 304
979 314 464 385 245
980 783 691 686 626
981 459 391 386 229
982 946 940 933 922
983 694 808 919 866
984 819 830 763 803
985 847 869 866 919
986 300 140 381 306
987 255 142 380 308
988 228 324 303 145
989 465 306 381 578
990 534 580 308 380
991 741 549 709 787
992 571 554 648 569
993 484 577 576 677
994 658 739 576 577
995 728 638 734 828
996 882 836 811 747
997 807 849 839 816
998 784 834 865 835
999 801 867 835 865
1000 882 904 898 836
1001 839 849 879 903
1002 910 934 903 879
$EndElements
